HIERARCHY
ROOT Hips
{
	OFFSET 0.00 0.00 0.00
	CHANNELS 6 Xposition Yposition Zposition Xrotation Yrotation Zrotation
	JOINT Spine
	{
		OFFSET 0.00000 4.88528 0.00000
		CHANNELS 3 Xrotation Yrotation Zrotation
		JOINT Head
		{
			OFFSET 0.00000 16.49416 0.00000
			CHANNELS 3 Xrotation Yrotation Zrotation
			End Site
			{
				OFFSET 0.00000 4.52755 0.00000
			}
		}
		JOINT LeftShoulder
		{
			OFFSET 0.00000 10.66345 0.00000
			CHANNELS 3 Xrotation Yrotation Zrotation
			JOINT LeftArm
			{
				OFFSET 7.53191 0.00000 0.00000
				CHANNELS 3 Xrotation Yrotation Zrotation
				JOINT LeftForeArm
				{
					OFFSET 10.22920 0.00000 0.00000
					CHANNELS 3 Yrotation Zrotation Xrotation
					JOINT LeftHand
					{
						OFFSET 8.67349 0.00000 0.00000
						CHANNELS 3 Xrotation Yrotation Zrotation
						JOINT LeftHandThumb1
						{
							OFFSET 0.00000 0.00000 0.00000
							CHANNELS 3 Xrotation Zrotation Yrotation
							End Site
							{
								OFFSET 0.00000 0.00000 3.93700
							}
						}
						End Site
						{
							OFFSET 3.93700 0.00000 0.00000
						}
					}
				}
			}
		}
		JOINT RightShoulder
		{
			OFFSET 0.00000 10.66345 0.00000
			CHANNELS 3 Xrotation Yrotation Zrotation
			JOINT RightArm
			{
				OFFSET -7.53191 0.00000 0.00000
				CHANNELS 3 Xrotation Yrotation Zrotation
				JOINT RightForeArm
				{
					OFFSET -10.22920 0.00000 0.00000
					CHANNELS 3 Yrotation Zrotation Xrotation
					JOINT RightHand
					{
						OFFSET -8.67349 0.00000 0.00000
						CHANNELS 3 Xrotation Yrotation Zrotation
						JOINT RightHandThumb1
						{
							OFFSET 0.00000 0.00000 0.00000
							CHANNELS 3 Xrotation Zrotation Yrotation
							End Site
							{
								OFFSET 0.00000 0.00000 3.93700
							}
						}
						End Site
						{
							OFFSET -3.93700 0.00000 0.00000
						}
					}
				}
			}
		}
	}
	JOINT LeftUpLeg
	{
		OFFSET 2.67219 0.00000 0.00000
		CHANNELS 3 Xrotation Yrotation Zrotation
		JOINT LeftLeg
		{
			OFFSET 0.00000 -16.26339 0.00000
			CHANNELS 3 Xrotation Yrotation Zrotation
			JOINT LeftFoot
			{
				OFFSET 0.00000 -14.32816 0.00000
				CHANNELS 3 Xrotation Yrotation Zrotation
				JOINT LeftToeBase
				{
					OFFSET 0.00000 -1.30219 4.85985
					CHANNELS 3 Xrotation Yrotation Zrotation
					End Site
					{
						OFFSET 0.00000 0.00000 2.95275
					}
				}
			}
		}
	}
	JOINT RightUpLeg
	{
		OFFSET -2.67219 0.00000 0.00000
		CHANNELS 3 Xrotation Yrotation Zrotation
		JOINT RightLeg
		{
			OFFSET 0.00000 -16.26339 0.00000
			CHANNELS 3 Xrotation Yrotation Zrotation
			JOINT RightFoot
			{
				OFFSET 0.00000 -14.32816 0.00000
				CHANNELS 3 Xrotation Yrotation Zrotation
				JOINT RightToeBase
				{
					OFFSET 0.00000 -1.30219 4.85985
					CHANNELS 3 Xrotation Yrotation Zrotation
					End Site
					{
						OFFSET 0.00000 0.00000 2.95275
					}
				}
			}
		}
	}
}
MOTION
Frames: 18
Frame Time: 0.008333
 6.7489 27.1271 9.6262 -63.9473 29.3729 -111.0797 -68.3854 -13.5376 -20.3036 -78.7321 -9.3515 4.1049 -7.4827 9.5950 39.2284 -142.6906 -4.8279 -40.4962 -115.1187 -0.0000 32.5268 1.5807 14.0046 -6.5052 33.1476 -0.0000 26.2537 -56.1038 23.2021 -29.0758 -84.8871 -5.5876 41.7821 119.8108 0.0000 28.7499 1.5668 -6.8831 12.8564 32.8623 0.0000 -24.3270 17.6403 -0.6000 20.6912 22.1997 0.0000 0.0000 41.8640 9.5433 -3.3573 106.8057 0.0000 -0.0000 -113.1874 8.2775 -24.5790 131.2836 -0.0000 0.0000 49.5877 1.7271 -4.4969 36.3069 0.0000 -0.0000
 6.7425 27.1230 9.6394 -63.9242 29.3598 -111.0779 -68.4096 -13.6245 -20.2731 -78.7526 -9.2962 4.1149 -7.4783 9.7073 39.1583 -142.7017 -4.8468 -40.5213 -115.1338 -0.0000 32.5717 1.5818 14.0479 -6.4906 33.1476 -0.0000 26.2537 -56.1331 23.2341 -29.0892 -84.8889 -5.6662 41.8646 119.7986 0.0000 28.6821 1.5425 -6.8220 12.7728 32.8623 0.0000 -24.3270 17.7405 -0.6009 20.7510 22.1469 0.0000 0.0000 41.9364 9.5269 -3.5035 107.1693 0.0000 0.0000 -113.0176 8.2259 -24.6395 131.3325 -0.0000 -0.0000 49.5825 1.7216 -4.4426 36.3498 -0.0000 -0.0000
 6.7303 27.1153 9.6492 -63.9683 29.2736 -110.9873 -68.5027 -13.6321 -20.2539 -78.7883 -9.2723 4.0791 -7.4782 9.8054 39.1257 -142.7328 -4.8392 -40.5165 -115.1287 -0.0000 32.5334 1.5656 13.9951 -6.4481 33.1476 -0.0000 26.2537 -56.1507 23.2408 -29.0938 -84.9251 -5.6995 41.9240 119.7456 0.0000 28.6296 1.5189 -6.7730 12.6711 32.8623 0.0000 -24.3270 17.7400 -0.6267 20.7430 22.1331 -0.0000 -0.0000 41.9359 9.4539 -3.3100 106.8781 -0.0000 0.0000 -112.9669 8.1951 -24.6343 131.3765 -0.0000 -0.0000 49.5784 1.6791 -4.4221 36.2493 0.0000 0.0000
 6.7143 27.1085 9.6573 -64.0259 29.1822 -110.8865 -68.5970 -13.6359 -20.2346 -78.8063 -9.2704 4.0424 -7.4704 9.8764 39.1087 -142.7629 -4.8432 -40.4785 -115.1378 -0.0000 32.5060 1.5705 13.9909 -6.4698 33.1476 -0.0000 26.2537 -56.2166 23.2673 -29.0367 -84.9312 -5.6799 41.9849 119.6754 0.0000 28.6414 1.4921 -6.6916 12.6007 32.8623 0.0000 -24.3270 17.7390 -0.6736 20.7362 22.1253 0.0000 -0.0000 41.9319 9.4054 -3.4070 106.7621 -0.0000 0.0000 -112.9438 8.1767 -24.6030 131.4188 0.0000 0.0000 49.5917 1.6436 -4.3697 36.1842 0.0000 -0.0000
 6.6974 27.1017 9.6661 -64.0847 29.0864 -110.7818 -68.6852 -13.6152 -20.2046 -78.8418 -9.3264 3.9678 -7.4757 9.8808 39.0667 -142.7786 -4.8856 -40.4359 -115.1147 -0.0000 32.4525 1.5628 13.9725 -6.4469 33.1476 -0.0000 26.2537 -56.2853 23.2996 -28.9883 -84.9275 -5.6397 42.0461 119.6222 0.0000 28.6144 1.4758 -6.6474 12.5473 32.8623 0.0000 -24.3270 17.7335 -0.7409 20.7254 22.1112 -0.0000 -0.0000 41.9231 9.3416 -3.4888 107.7492 0.0000 0.0000 -112.9426 8.1197 -24.5778 131.4887 -0.0000 0.0000 49.4872 1.4531 -4.1785 36.3273 -0.0000 -0.0000
 6.6796 27.0974 9.6744 -64.1285 28.9919 -110.6738 -68.7616 -13.5869 -20.1982 -78.8663 -9.3408 3.8842 -7.4808 9.9086 39.0549 -142.7983 -4.8906 -40.3833 -115.1065 -0.0000 32.4016 1.5500 13.9417 -6.4081 33.1476 -0.0000 26.2537 -56.3830 23.3552 -28.9242 -84.8945 -5.5969 42.0577 119.5605 0.0000 28.5951 1.4518 -6.5833 12.4653 32.8623 0.0000 -24.3270 17.7117 -0.7810 20.7008 22.1273 0.0000 -0.0000 41.8772 9.3793 -3.4017 107.0938 0.0000 -0.0000 -112.9312 8.1221 -24.5579 131.5422 0.0000 0.0000 49.5050 1.4162 -4.1089 36.3509 0.0000 -0.0000
 6.6604 27.0957 9.6802 -64.1649 28.9055 -110.5854 -68.7948 -13.5524 -20.1930 -78.9057 -9.2869 3.7766 -7.4805 9.9615 39.0587 -142.9460 -4.8433 -40.3142 -115.0773 -0.0000 32.4358 1.5738 13.7222 -6.6067 33.1476 -0.0000 26.2537 -56.4701 23.3951 -28.9030 -84.8947 -5.5916 42.0366 119.5275 0.0000 28.5511 1.4498 -6.5627 12.4860 32.8623 0.0000 -24.3270 17.7077 -0.8373 20.7132 22.1392 -0.0000 -0.0000 41.8686 9.3992 -3.5013 107.5889 -0.0000 0.0000 -112.9018 8.1614 -24.5417 131.5896 -0.0000 0.0000 49.5936 1.6046 -4.1174 36.4329 0.0000 0.0000
 6.6403 27.0945 9.6861 -64.1764 28.8189 -110.5005 -68.8183 -13.4898 -20.2071 -78.9553 -9.2754 3.6652 -7.4945 9.9372 39.0782 -142.9572 -4.8281 -40.2199 -115.1132 -0.0000 32.4172 1.6245 13.8266 -6.7678 33.1476 -0.0000 26.2537 -56.4417 23.3724 -28.9247 -85.0084 -5.5469 42.0209 119.4828 0.0000 28.4957 1.4453 -6.5614 12.4509 32.8623 0.0000 -24.3270 17.7015 -0.9117 20.7264 22.1637 0.0000 0.0000 41.8787 9.4044 -3.6491 108.2977 0.0000 -0.0000 -112.8811 8.1764 -24.5397 131.6658 0.0000 -0.0000 49.6278 1.6286 -4.1632 36.4258 -0.0000 -0.0000
 6.6212 27.0967 9.6916 -64.1826 28.7803 -110.4382 -68.7868 -13.4763 -20.1988 -79.0266 -9.2743 3.6080 -7.4951 10.0277 39.0854 -143.0416 -4.7790 -40.1961 -115.1295 -0.0000 32.4376 1.6288 13.8408 -6.7785 33.1476 -0.0000 26.2537 -56.4943 23.3894 -28.9024 -85.0832 -5.5073 42.0164 119.4260 0.0000 28.4293 1.4387 -6.5529 12.4114 32.8623 0.0000 -24.3270 17.7250 -0.9184 20.7569 22.2058 -0.0000 0.0000 41.8750 9.4242 -3.5223 108.3278 -0.0000 0.0000 -112.8148 8.1614 -24.5365 131.7534 0.0000 -0.0000 49.6441 1.6319 -4.1488 36.3244 0.0000 0.0000
 6.6012 27.0983 9.6968 -64.1852 28.7182 -110.3652 -68.7716 -13.4364 -20.2097 -79.1010 -9.2866 3.5733 -7.5071 10.0580 39.1039 -143.0704 -4.7765 -40.1680 -115.1153 -0.0000 32.4668 1.5554 13.9023 -6.4479 33.1476 -0.0000 26.2537 -56.5574 23.4097 -28.8762 -85.1475 -5.4500 41.9904 119.3481 0.0000 28.3490 1.4193 -6.4910 12.3618 32.8623 0.0000 -24.3270 17.7305 -0.9518 20.7795 22.2398 0.0000 0.0000 41.9058 9.5112 -3.7305 109.1525 -0.0000 -0.0000 -112.7721 8.1763 -24.5413 131.8361 0.0000 -0.0000 49.6331 1.6278 -4.0682 36.4125 0.0000 -0.0000
 6.5795 27.0984 9.7027 -64.2094 28.6377 -110.2388 -68.7874 -13.3568 -20.2319 -79.1847 -9.3924 3.5735 -7.8774 9.8960 39.1768 -142.6985 -4.6704 -40.1916 -115.1353 -0.0000 32.5986 1.5702 13.8972 -6.5110 33.1476 -0.0000 26.2537 -56.6293 23.4505 -28.8421 -85.1548 -5.3764 41.9507 119.2773 0.0000 28.4342 1.4019 -6.4939 12.2100 32.8623 0.0000 -24.3270 17.6917 -0.9704 20.7540 22.2980 0.0000 0.0000 41.9893 9.6020 -3.6816 107.5623 -0.0000 0.0000 -112.7617 8.2341 -24.5162 131.9102 -0.0000 0.0000 49.6151 1.6325 -4.0633 36.5341 0.0000 -0.0000
 6.5569 27.0992 9.7060 -64.2340 28.5583 -110.1569 -68.8004 -13.3493 -20.2394 -79.2503 -9.3792 3.6321 -8.1324 9.7911 39.2122 -142.4695 -4.6583 -40.2026 -115.1129 -0.0000 32.7094 1.5854 13.8898 -6.5771 33.1476 -0.0000 26.2537 -56.7453 23.5230 -28.7563 -85.1682 -5.3030 41.8947 119.2121 0.0000 28.3673 1.3994 -6.4956 12.1853 32.8623 0.0000 -24.3270 17.6551 -0.9568 20.7880 22.3310 -0.0000 0.0000 42.0098 9.5239 -3.6430 108.5052 -0.0000 -0.0000 -112.7461 8.2315 -24.5056 131.9820 0.0000 0.0000 49.6729 1.6664 -4.1721 36.2610 -0.0000 -0.0000
 6.5347 27.1004 9.7092 -64.2494 28.4996 -110.0722 -68.7857 -13.3360 -20.2528 -79.3053 -9.3566 3.7011 -7.7820 9.9747 39.1342 -142.9651 -4.8515 -40.0704 -115.0258 -0.0000 32.7375 1.5833 13.9289 -6.5504 33.1476 -0.0000 26.2537 -56.8052 23.5271 -28.7125 -85.2253 -5.2414 41.8781 119.1524 0.0000 28.3480 1.3830 -6.4601 12.1111 32.8623 0.0000 -24.3270 17.6288 -0.9175 20.8127 22.3647 -0.0000 0.0000 42.1168 9.5430 -3.4279 106.8603 0.0000 -0.0000 -112.7053 8.2540 -24.4841 132.0467 0.0000 0.0000 49.6819 1.6854 -4.1710 36.3893 -0.0000 0.0000
 6.5124 27.1032 9.7117 -64.2751 28.4142 -109.9738 -68.8202 -13.3294 -20.2823 -79.3130 -9.3767 3.8206 -7.8767 9.9148 39.1041 -142.9315 -4.9706 -40.0879 -114.9251 -0.0000 32.7789 1.6084 13.8928 -6.6701 33.1476 -0.0000 26.2537 -56.8579 23.5763 -28.6546 -85.2727 -5.2128 41.8229 119.0946 0.0000 28.2572 1.3665 -6.4091 12.0629 32.8623 0.0000 -24.3270 17.5897 -0.8872 20.8406 22.3570 -0.0000 -0.0000 42.1067 9.4410 -3.4283 108.9392 -0.0000 -0.0000 -112.6988 8.2773 -24.4663 132.1139 -0.0000 -0.0000 49.7077 1.7046 -4.2059 36.4217 -0.0000 0.0000
 6.4904 27.1063 9.7140 -64.2888 28.3678 -109.9301 -68.7962 -13.3752 -20.2853 -79.3587 -9.3723 3.9655 -8.1335 9.7739 39.0847 -142.8111 -5.0819 -40.1576 -114.7389 -0.0000 32.9390 1.4373 13.5836 -6.0980 33.1476 -0.0000 26.2537 -56.9442 23.6162 -28.6098 -85.2978 -5.2218 41.7852 119.0701 0.0000 28.2592 1.3669 -6.4069 12.0702 32.8623 0.0000 -24.3270 17.6167 -0.8542 20.9191 22.3158 0.0000 -0.0000 42.1574 9.4392 -3.7154 109.5384 0.0000 -0.0000 -112.6447 8.2491 -24.4615 132.1824 -0.0000 -0.0000 49.6997 1.7006 -4.2241 36.4474 -0.0000 -0.0000
 6.4689 27.1070 9.7155 -64.3140 28.3082 -109.8785 -68.8053 -13.4388 -20.2953 -79.3803 -9.3607 4.1465 -8.2678 9.7169 39.0814 -142.7534 -5.2065 -40.1797 -114.6247 -0.0000 32.8533 1.3474 13.5373 -5.7378 33.1476 -0.0000 26.2537 -57.0340 23.6751 -28.5570 -85.3123 -5.2567 41.7269 119.0669 0.0000 28.2146 1.3661 -6.4155 12.0476 32.8623 0.0000 -24.3270 17.5918 -0.7710 20.9804 22.2928 0.0000 0.0000 42.1184 9.4690 -3.4223 108.9616 0.0000 -0.0000 -112.5888 8.2304 -24.4553 132.2223 0.0000 -0.0000 49.7193 1.7169 -4.2741 36.4589 0.0000 -0.0000
 6.4474 27.1088 9.7160 -64.3444 28.2441 -109.8197 -68.8184 -13.4984 -20.3153 -79.4027 -9.3821 4.3288 -8.3256 9.7235 39.1266 -142.7594 -5.2535 -40.1200 -114.5835 -0.0000 32.8316 1.3965 13.4481 -5.9842 33.1476 -0.0000 26.2537 -57.0494 23.6830 -28.5641 -85.3937 -5.3585 41.6738 119.0651 0.0000 28.1573 1.3537 -6.3778 12.0098 32.8623 0.0000 -24.3270 17.5955 -0.7290 21.0394 22.2316 -0.0000 0.0000 42.1274 9.5148 -3.3680 108.2675 -0.0000 -0.0000 -112.5444 8.2135 -24.4410 132.2658 0.0000 -0.0000 49.7815 1.7158 -4.2781 36.2346 -0.0000 -0.0000
 6.4259 27.1095 9.7155 -64.3852 28.1627 -109.7528 -68.8565 -13.5453 -20.3358 -79.4192 -9.4818 4.5113 -8.3361 9.7357 39.1423 -142.8272 -5.3637 -40.0656 -114.4875 -0.0000 32.7825 1.3962 13.4204 -5.9950 33.1476 -0.0000 26.2537 -57.0435 23.6964 -28.6048 -85.4806 -5.5033 41.6079 119.0764 0.0000 28.0976 1.3439 -6.3431 11.9878 32.8623 0.0000 -24.3270 17.5750 -0.7016 21.0963 22.1710 -0.0000 -0.0000 42.0573 9.4880 -3.3536 108.9573 -0.0000 -0.0000 -112.5203 8.1967 -24.4285 132.3030 -0.0000 0.0000 49.7437 1.7098 -4.2789 36.3200 0.0000 0.0000
